<?xml version="1.0" encoding="utf-8"?>
<!-- Generator: Adobe Illustrator 18.1.1, SVG Export Plug-In . SVG Version: 6.00 Build 0)  -->
<svg version="1.1" id="Layer_1" xmlns="http://www.w3.org/2000/svg" xmlns:xlink="http://www.w3.org/1999/xlink" x="0px" y="0px"
	 viewBox="0 0 144 144" enable-background="new 0 0 144 144" xml:space="preserve">
<path fill="#FFFFFF" d="M32.2,18.7c0,0-15.7,79.3,0,96.4S116,129,116,129v-14.8c0,0-64.1,6.3-75.3-8.5s2.9-87,2.9-87H32.2z"/>
<path fill="#FFFFFF" d="M50.1,32.8c0,0-0.5,65,16.8,69c17.3,4,4.2-45.3,15.6-49.3s3.9,48.4,23.7,47.1c19.8-1.3,21.9-80.7,21.9-80.7
	h-12c0,0-2.8,51.6-10.3,51.6c-6.9,0-9.9-33.6-23.3-34.1C69,36,71.5,67.6,66.5,67.9s-4.6-35.1-4.6-35.1H50.1z"/>
</svg>
