<?xml version="1.0" encoding="utf-8"?>
<!-- Generator: Adobe Illustrator 18.1.1, SVG Export Plug-In . SVG Version: 6.00 Build 0)  -->
<svg version="1.1" id="Layer_1" xmlns="http://www.w3.org/2000/svg" xmlns:xlink="http://www.w3.org/1999/xlink" x="0px" y="0px"
	 viewBox="0 0 144 144" enable-background="new 0 0 144 144" xml:space="preserve">
<g>
	<defs>
		<rect id="SVGID_1_" x="12" y="53.4" width="116.7" height="36.6"/>
	</defs>
	<clipPath id="SVGID_2_">
		<use xlink:href="#SVGID_1_"  overflow="visible"/>
	</clipPath>
	<circle clip-path="url(#SVGID_2_)" fill="none" stroke="#D1232A" stroke-width="2" cx="29.1" cy="70.5" r="16.1"/>
</g>
<g>
	<path fill="#D1232A" d="M23.8,77.2h-4.1V62.1h3.9c2,0,3.4,0.4,4.4,1.2c1.1,0.9,1.7,2.3,1.7,3.9c0,1.8-0.6,3.2-1.8,4.1
		c-0.8,0.6-2,0.9-3.5,0.9h-0.6V77.2z M23.8,69.1l0.2,0c0.5,0,0.9-0.2,1.2-0.5s0.4-0.7,0.4-1.2c0-0.5-0.1-0.9-0.4-1.3
		c-0.3-0.3-0.7-0.5-1.1-0.5h-0.3V69.1z"/>
	<path fill="#D1232A" d="M30.6,76.1l1.4-2.9c0.7,0.7,1.4,1.1,2,1.1c0.5,0,0.8-0.2,0.8-0.5c0-0.3-0.3-0.6-1-0.8
		C31.9,72.3,31,71.3,31,70c0-1,0.4-1.8,1.2-2.4c0.8-0.6,1.9-1,3.1-1c1,0,2.1,0.3,3.1,0.9l-1.3,3c-0.7-0.6-1.2-0.9-1.6-0.9
		c-0.4,0-0.6,0.2-0.6,0.5c0,0.3,0.4,0.6,1.2,0.9c1,0.4,1.7,0.7,2,1.1c0.4,0.4,0.6,1,0.6,1.7c0,1-0.4,1.8-1.2,2.5
		c-0.8,0.6-1.8,1-3.1,1c-0.6,0-1.2-0.1-1.8-0.2c-0.3-0.1-0.6-0.2-0.9-0.3S31,76.3,30.6,76.1z"/>
</g>
<g>
	<defs>
		<rect id="SVGID_3_" x="12" y="53.4" width="116.7" height="36.6"/>
	</defs>
	<clipPath id="SVGID_4_">
		<use xlink:href="#SVGID_3_"  overflow="visible"/>
	</clipPath>
	<circle clip-path="url(#SVGID_4_)" fill="none" stroke="#D1232A" stroke-width="2" cx="70.4" cy="71.7" r="16.1"/>
</g>
<g>
	<path fill="#D1232A" d="M72.9,78.4h-4.2l-0.3-1.9h-2.7l-0.3,1.9h-4.2l3.6-15.1h5L72.9,78.4z M67.9,73.3l-0.3-1.8c0,0,0-0.1,0-0.3
		c0-0.1-0.1-0.7-0.2-1.7c0-0.1,0-0.3,0-0.5s0-0.4-0.1-0.7L67.1,67c0,0.1,0,0.3-0.1,0.5s0,0.4-0.1,0.6c0,0.4-0.1,0.7-0.1,0.8
		s0,0.3,0,0.3l-0.3,1.8l-0.4,2.4H67.9z"/>
	<path fill="#D1232A" d="M78.1,64.6c0,0.6-0.2,1.2-0.7,1.6c-0.5,0.4-1,0.7-1.6,0.7c-0.6,0-1.2-0.2-1.6-0.7c-0.4-0.5-0.7-1-0.7-1.6
		c0-0.6,0.2-1.2,0.7-1.6c0.5-0.4,1-0.7,1.6-0.7c0.6,0,1.2,0.2,1.6,0.7C77.9,63.4,78.1,63.9,78.1,64.6z M77.8,78.4h-3.9V67.8h3.9
		V78.4z"/>
</g>
<g>
	<defs>
		<rect id="SVGID_5_" x="12" y="53.4" width="116.7" height="36.6"/>
	</defs>
	<clipPath id="SVGID_6_">
		<use xlink:href="#SVGID_5_"  overflow="visible"/>
	</clipPath>
	<circle clip-path="url(#SVGID_6_)" fill="none" stroke="#D1232A" stroke-width="2" cx="111.6" cy="72.9" r="16.1"/>
</g>
<g>
	<path fill="#D1232A" d="M108.4,79.6h-4.1V64.5h4.1V79.6z"/>
	<path fill="#D1232A" d="M115.7,79.6c0-0.1,0-0.2,0-0.4s0-0.3,0-0.5c0-0.1,0-0.3,0-0.5c-0.4,0.6-0.7,1-1.1,1.3
		c-0.4,0.1-0.8,0.1-1.3,0.1c-1.1,0-1.9-0.5-2.5-1.4c-0.6-0.9-0.9-2.2-0.9-3.8c0-1.7,0.3-3,0.9-4c0.6-0.9,1.4-1.4,2.5-1.4
		c0.6,0,1.1,0.1,1.4,0.4c0.4,0.3,0.7,0.7,1.1,1.4c0-0.3,0-0.5,0-0.6l0-1.1v-6h3.9v16.5H115.7z M113.9,74.4c0,1.4,0.3,2.1,1,2.1
		c0.6,0,0.9-0.7,0.9-2.2c0-1.4-0.3-2.1-0.9-2.1C114.3,72.2,113.9,72.9,113.9,74.4z"/>
</g>
</svg>
